<mxfile host="app.diagrams.net" modified="2020-09-11T07:37:11.699Z" agent="5.0 (Windows NT 10.0; Win64; x64) AppleWebKit/537.36 (KHTML, like Gecko) Chrome/85.0.4183.102 Safari/537.36" etag="CbNKU0eYSlc_TtBAYhO-" version="13.6.9" type="github">
  <diagram id="NlnIgm_VbgOYIKggrJFL" name="หน้า-1">
    <mxGraphModel dx="1038" dy="580" grid="1" gridSize="10" guides="1" tooltips="1" connect="1" arrows="1" fold="1" page="1" pageScale="1" pageWidth="827" pageHeight="1169" math="0" shadow="0">
      <root>
        <mxCell id="0" />
        <mxCell id="1" parent="0" />
        <mxCell id="77lwt5CZGk8mBM0m9vqZ-3" value="register" style="ellipse;whiteSpace=wrap;html=1;" vertex="1" parent="1">
          <mxGeometry x="350" y="170" width="110" height="60" as="geometry" />
        </mxCell>
        <mxCell id="77lwt5CZGk8mBM0m9vqZ-4" value="login" style="ellipse;whiteSpace=wrap;html=1;" vertex="1" parent="1">
          <mxGeometry x="350" y="265" width="115" height="70" as="geometry" />
        </mxCell>
        <mxCell id="77lwt5CZGk8mBM0m9vqZ-5" value="ขายวัว" style="ellipse;whiteSpace=wrap;html=1;" vertex="1" parent="1">
          <mxGeometry x="355" y="360" width="115" height="70" as="geometry" />
        </mxCell>
        <mxCell id="77lwt5CZGk8mBM0m9vqZ-11" value="" style="shape=actor;whiteSpace=wrap;html=1;" vertex="1" parent="1">
          <mxGeometry x="90" y="140" width="40" height="60" as="geometry" />
        </mxCell>
        <mxCell id="77lwt5CZGk8mBM0m9vqZ-12" value="บุคคลทั่วไป" style="text;html=1;align=center;verticalAlign=middle;resizable=0;points=[];autosize=1;" vertex="1" parent="1">
          <mxGeometry x="75" y="210" width="70" height="20" as="geometry" />
        </mxCell>
        <mxCell id="77lwt5CZGk8mBM0m9vqZ-21" value="&lt;span style=&quot;font-family: &amp;#34;roboto&amp;#34; , &amp;#34;robotodraft&amp;#34; , &amp;#34;helvetica&amp;#34; , &amp;#34;arial&amp;#34; , sans-serif ; font-size: 13px&quot;&gt;Oxes Trading&lt;/span&gt;" style="rounded=1;whiteSpace=wrap;html=1;labelBackgroundColor=none;fontColor=#000000;" vertex="1" parent="1">
          <mxGeometry x="332.5" y="50" width="150" height="60" as="geometry" />
        </mxCell>
        <mxCell id="77lwt5CZGk8mBM0m9vqZ-25" value="" style="shape=actor;whiteSpace=wrap;html=1;labelBackgroundColor=none;fontColor=#000000;" vertex="1" parent="1">
          <mxGeometry x="100" y="310" width="40" height="60" as="geometry" />
        </mxCell>
        <mxCell id="77lwt5CZGk8mBM0m9vqZ-26" value="ผู้ใช้งานระบบ" style="text;html=1;align=center;verticalAlign=middle;resizable=0;points=[];autosize=1;fontColor=#000000;" vertex="1" parent="1">
          <mxGeometry x="70" y="380" width="80" height="20" as="geometry" />
        </mxCell>
        <mxCell id="77lwt5CZGk8mBM0m9vqZ-29" value="ซื้อวัว" style="ellipse;whiteSpace=wrap;html=1;labelBackgroundColor=none;fontColor=#000000;" vertex="1" parent="1">
          <mxGeometry x="360" y="460" width="110" height="70" as="geometry" />
        </mxCell>
        <mxCell id="77lwt5CZGk8mBM0m9vqZ-31" value="" style="shape=actor;whiteSpace=wrap;html=1;labelBackgroundColor=none;fontColor=#000000;" vertex="1" parent="1">
          <mxGeometry x="640" y="300" width="40" height="60" as="geometry" />
        </mxCell>
        <mxCell id="77lwt5CZGk8mBM0m9vqZ-32" value="ผุ้ดูแลเว็บ" style="text;html=1;align=center;verticalAlign=middle;resizable=0;points=[];autosize=1;fontColor=#000000;" vertex="1" parent="1">
          <mxGeometry x="630" y="360" width="60" height="20" as="geometry" />
        </mxCell>
        <mxCell id="77lwt5CZGk8mBM0m9vqZ-34" value="" style="line;strokeWidth=2;html=1;labelBackgroundColor=none;fontColor=#000000;" vertex="1" parent="1">
          <mxGeometry x="560" y="335" width="82.5" height="10" as="geometry" />
        </mxCell>
        <mxCell id="77lwt5CZGk8mBM0m9vqZ-36" value="" style="endArrow=classic;html=1;fontColor=#000000;exitX=0;exitY=0.5;exitDx=0;exitDy=0;exitPerimeter=0;" edge="1" parent="1" source="77lwt5CZGk8mBM0m9vqZ-34">
          <mxGeometry width="50" height="50" relative="1" as="geometry">
            <mxPoint x="500" y="330" as="sourcePoint" />
            <mxPoint x="470" y="300" as="targetPoint" />
          </mxGeometry>
        </mxCell>
        <mxCell id="77lwt5CZGk8mBM0m9vqZ-38" value="" style="endArrow=classic;html=1;fontColor=#000000;entryX=0.989;entryY=0.63;entryDx=0;entryDy=0;entryPerimeter=0;" edge="1" parent="1" target="77lwt5CZGk8mBM0m9vqZ-3">
          <mxGeometry width="50" height="50" relative="1" as="geometry">
            <mxPoint x="560" y="340" as="sourcePoint" />
            <mxPoint x="470" y="280" as="targetPoint" />
          </mxGeometry>
        </mxCell>
        <mxCell id="77lwt5CZGk8mBM0m9vqZ-39" value="" style="endArrow=classic;html=1;fontColor=#000000;" edge="1" parent="1" target="77lwt5CZGk8mBM0m9vqZ-5">
          <mxGeometry width="50" height="50" relative="1" as="geometry">
            <mxPoint x="560" y="340" as="sourcePoint" />
            <mxPoint x="468.78999999999996" y="217.79999999999995" as="targetPoint" />
          </mxGeometry>
        </mxCell>
        <mxCell id="77lwt5CZGk8mBM0m9vqZ-40" value="" style="endArrow=classic;html=1;fontColor=#000000;entryX=1;entryY=0.5;entryDx=0;entryDy=0;exitX=0;exitY=0.5;exitDx=0;exitDy=0;exitPerimeter=0;" edge="1" parent="1" source="77lwt5CZGk8mBM0m9vqZ-34" target="77lwt5CZGk8mBM0m9vqZ-29">
          <mxGeometry width="50" height="50" relative="1" as="geometry">
            <mxPoint x="580" y="360" as="sourcePoint" />
            <mxPoint x="478.78999999999996" y="227.79999999999995" as="targetPoint" />
          </mxGeometry>
        </mxCell>
        <mxCell id="77lwt5CZGk8mBM0m9vqZ-41" value="" style="endArrow=classic;html=1;fontColor=#000000;entryX=-0.015;entryY=0.63;entryDx=0;entryDy=0;entryPerimeter=0;" edge="1" parent="1" target="77lwt5CZGk8mBM0m9vqZ-3">
          <mxGeometry width="50" height="50" relative="1" as="geometry">
            <mxPoint x="120" y="240" as="sourcePoint" />
            <mxPoint x="440" y="270" as="targetPoint" />
          </mxGeometry>
        </mxCell>
        <mxCell id="77lwt5CZGk8mBM0m9vqZ-42" value="" style="endArrow=classic;html=1;fontColor=#000000;" edge="1" parent="1">
          <mxGeometry width="50" height="50" relative="1" as="geometry">
            <mxPoint x="120" y="240" as="sourcePoint" />
            <mxPoint x="358" y="490" as="targetPoint" />
          </mxGeometry>
        </mxCell>
        <mxCell id="77lwt5CZGk8mBM0m9vqZ-43" value="" style="endArrow=classic;html=1;fontColor=#000000;entryX=-0.015;entryY=0.63;entryDx=0;entryDy=0;entryPerimeter=0;" edge="1" parent="1">
          <mxGeometry width="50" height="50" relative="1" as="geometry">
            <mxPoint x="160" y="360" as="sourcePoint" />
            <mxPoint x="368.3499999999999" y="227.79999999999995" as="targetPoint" />
          </mxGeometry>
        </mxCell>
        <mxCell id="77lwt5CZGk8mBM0m9vqZ-44" value="" style="endArrow=classic;html=1;fontColor=#000000;entryX=0;entryY=0.5;entryDx=0;entryDy=0;" edge="1" parent="1" target="77lwt5CZGk8mBM0m9vqZ-4">
          <mxGeometry width="50" height="50" relative="1" as="geometry">
            <mxPoint x="160" y="360" as="sourcePoint" />
            <mxPoint x="378.3499999999999" y="237.79999999999995" as="targetPoint" />
          </mxGeometry>
        </mxCell>
        <mxCell id="77lwt5CZGk8mBM0m9vqZ-45" value="" style="endArrow=classic;html=1;fontColor=#000000;entryX=0;entryY=0.5;entryDx=0;entryDy=0;" edge="1" parent="1" target="77lwt5CZGk8mBM0m9vqZ-5">
          <mxGeometry width="50" height="50" relative="1" as="geometry">
            <mxPoint x="160" y="360" as="sourcePoint" />
            <mxPoint x="388.3499999999999" y="247.79999999999995" as="targetPoint" />
          </mxGeometry>
        </mxCell>
      </root>
    </mxGraphModel>
  </diagram>
</mxfile>
